<?xml version="1.0" standalone="no"?>
<!DOCTYPE svg PUBLIC "-//W3C//DTD SVG 20010904//EN"
 "http://www.w3.org/TR/2001/REC-SVG-20010904/DTD/svg10.dtd">
<svg version="1.0" xmlns="http://www.w3.org/2000/svg"
 width="64.000000pt" height="64.000000pt" viewBox="0 0 64.000000 64.000000"
 preserveAspectRatio="xMidYMid meet">

<g transform="translate(0.000000,64.000000) scale(0.100000,-0.100000)"
fill="#000000" stroke="none">
<path d="M425 555 c-3 -8 -7 -22 -10 -31 -3 -10 -12 -13 -24 -9 -23 7 -38 -12
-22 -28 16 -16 14 -44 -4 -51 -21 -8 -7 -38 15 -31 19 6 35 -19 24 -37 -11
-18 19 -28 37 -12 15 13 18 13 32 -1 24 -23 49 -19 45 8 -2 17 3 23 22 25 36
5 49 21 27 33 -17 10 -17 13 -3 34 22 33 20 43 -6 47 -17 2 -23 10 -23 28 0
15 -7 26 -18 28 -9 2 -17 -1 -17 -7 0 -17 -37 -13 -44 4 -3 8 -10 15 -16 15
-6 0 -13 -7 -15 -15z m75 -80 c14 -17 5 -51 -16 -59 -22 -8 -54 11 -54 32 0
38 46 56 70 27z"/>
<path d="M250 160 c0 -36 39 -80 70 -80 31 0 70 44 70 80 l0 30 -70 0 -70 0 0
-30z"/>
</g>
</svg>
